<svg width="1512" height="227" xmlns="http://www.w3.org/2000/svg" xmlns:xlink="http://www.w3.org/1999/xlink" overflow="hidden"><defs><clipPath id="clip0"><rect x="0" y="0" width="1512" height="227"/></clipPath></defs><g clip-path="url(#clip0)"><rect x="0" y="0" width="1512" height="227.142" fill="#FFFFFF"/><text font-family="Consolas,Consolas_MSFontService,sans-serif" font-weight="400" font-size="193" transform="matrix(1 0 0 1.00062 439.128 175)">DeepH-pack</text><path d="M0 0 68.3286 0.000104998" stroke="#389826" stroke-width="8.00088" stroke-miterlimit="8" fill="none" fill-rule="evenodd" transform="matrix(-1 0 0 1.00062 309.329 100.062)"/><path d="M0 12.5C-1.59141e-15 5.59642 5.59642-1.59141e-15 12.5-3.18282e-15 19.4035-6.36565e-15 24.9999 5.59642 24.9999 12.5 24.9999 19.4035 19.4035 24.9999 12.5 24.9999 5.59642 24.9999-7.95706e-15 19.4035 0 12.5Z" stroke="#389826" stroke-width="6.00066" stroke-miterlimit="8" fill="none" fill-rule="evenodd" transform="matrix(-1 0 0 1.00062 335 87.0544)"/><path d="M270 99.0618 313.192 142.089 354 142.089" stroke="#389826" stroke-width="8.00088" stroke-miterlimit="8" fill="none" fill-rule="evenodd"/><path d="M0 12.5C-1.59142e-15 5.59642 5.59645-1.59141e-15 12.5-3.18282e-15 19.4036-6.36565e-15 25 5.59642 25 12.5 25 19.4035 19.4036 24.9999 12.5 24.9999 5.59645 24.9999-7.95709e-15 19.4035 0 12.5Z" stroke="#389826" stroke-width="6.00066" stroke-miterlimit="8" fill="none" fill-rule="evenodd" transform="matrix(-1 0 0 1.00062 381 130.081)"/><path d="M140 138.086 115.578 138.086 80.8037 173.108 67 173.108" stroke="#9558B2" stroke-width="8.00088" stroke-miterlimit="8" fill="none" fill-rule="evenodd"/><path d="M42 173.608C42 166.7 47.5965 161.101 54.5 161.101 61.4036 161.101 67 166.7 67 173.608 67 180.516 61.4036 186.116 54.5 186.116 47.5965 186.116 42 180.516 42 173.608Z" stroke="#9558B2" stroke-width="6.00066" stroke-miterlimit="8" fill="none" fill-rule="evenodd"/><path d="M44 111.069 162.83 111.069" stroke="#CB3C33" stroke-width="8.00088" stroke-miterlimit="8" fill="none" fill-rule="evenodd"/><path d="M18 110.569C18 103.661 23.5964 98.0612 30.5 98.0612 37.4036 98.0612 43 103.661 43 110.569 43 117.477 37.4036 123.077 30.5 123.077 23.5964 123.077 18 117.477 18 110.569Z" stroke="#CB3C33" stroke-width="6.00066" stroke-miterlimit="8" fill="none" fill-rule="evenodd"/><path d="M158 84.0525 108.772 84.0525 89 64.04" stroke="#4063D8" stroke-width="8.00088" stroke-miterlimit="8" fill="none" fill-rule="evenodd"/><path d="M68 54.5341C68 47.6262 73.5965 42.0262 80.5 42.0262 87.4035 42.0262 93 47.6262 93 54.5341 93 61.4419 87.4035 67.0419 80.5 67.0419 73.5965 67.0419 68 61.4419 68 54.5341Z" stroke="#4063D8" stroke-width="6.00066" stroke-miterlimit="8" fill="none" fill-rule="evenodd"/><path d="M123 188.117 142.27 50.0313 175 50.0313 155.73 188.117Z" stroke="#FFFFFF" stroke-width="8.00088" stroke-miterlimit="8" fill="#EE4C2C" fill-rule="evenodd"/><path d="M206 188.117 225.27 50.0313 258 50.0313 238.73 188.117Z" stroke="#FFFFFF" stroke-width="8.00088" stroke-miterlimit="8" fill="#EE4C2C" fill-rule="evenodd"/><rect x="0" y="0" width="92" height="21.9999" fill="#EE4C2C" transform="matrix(1 0 0 -1.00062 144 132.082)"/><path d="M200 17.5109 237.5 42.1418 235.91 45.5284 199.867 26.5935 163.958 45.5284 162.5 42.1418Z" stroke="#EE4C2C" stroke-width="1.00011" stroke-linejoin="round" stroke-miterlimit="10" fill="#EE4C2C" fill-rule="evenodd"/></g></svg>